<svg width="28" height="28" viewBox="0 0 28 28" fill="none" xmlns="http://www.w3.org/2000/svg">
<path d="M14 0C6.28009 0 0 6.28009 0 14C0 21.7199 6.28009 28 14 28C21.7199 28 28 21.7199 28 14C28 6.28009 21.7199 0 14 0Z" fill="white"/>
<path d="M15.1667 7.00009C15.1667 7.64438 14.6444 8.16669 14.0001 8.16669C13.3558 8.16669 12.8335 7.64438 12.8335 7.00009C12.8335 6.3558 13.3558 5.8335 14.0001 5.8335C14.6444 5.8335 15.1667 6.3558 15.1667 7.00009Z" fill="black"/>
<path d="M14.0001 22.1666C13.5171 22.1666 13.1251 21.7746 13.1251 21.2916V12.25H11.9585C11.4755 12.25 11.0835 11.858 11.0835 11.375C11.0835 10.892 11.4755 10.5 11.9585 10.5H14.0001C14.4831 10.5 14.8751 10.892 14.8751 11.375V21.2916C14.8751 21.7746 14.4831 22.1666 14.0001 22.1666Z" fill="black"/>
<path d="M14 28C6.28009 28 0 21.7199 0 14C0 6.28009 6.28009 0 14 0C21.7199 0 28 6.28009 28 14C28 21.7199 21.7199 28 14 28ZM14 1.75C7.24503 1.75 1.75 7.24503 1.75 14C1.75 20.755 7.24503 26.25 14 26.25C20.755 26.25 26.25 20.755 26.25 14C26.25 7.24503 20.755 1.75 14 1.75Z" fill="black"/>
<path d="M16.625 22.1665H11.375C10.892 22.1665 10.5 21.7745 10.5 21.2915C10.5 20.8085 10.892 20.4165 11.375 20.4165H16.625C17.108 20.4165 17.5 20.8085 17.5 21.2915C17.5 21.7745 17.108 22.1665 16.625 22.1665Z" fill="black"/>
</svg>
