<svg width="28" height="28" viewBox="0 0 28 28" fill="none" xmlns="http://www.w3.org/2000/svg">
<path d="M14 0C6.28009 0 0 6.28009 0 14C0 21.7199 6.28009 28 14 28C21.7199 28 28 21.7199 28 14C28 6.28009 21.7199 0 14 0Z" fill="white"/>
<path d="M15.1667 21.0001C15.1667 21.6444 14.6444 22.1667 14.0001 22.1667C13.3558 22.1667 12.8335 21.6444 12.8335 21.0001C12.8335 20.3558 13.3558 19.8335 14.0001 19.8335C14.6444 19.8335 15.1667 20.3558 15.1667 21.0001Z" fill="black"/>
<path d="M14 28C6.28009 28 0 21.7199 0 14C0 6.28009 6.28009 0 14 0C21.7199 0 28 6.28009 28 14C28 21.7199 21.7199 28 14 28ZM14 1.75C7.24503 1.75 1.75 7.24503 1.75 14C1.75 20.755 7.24503 26.25 14 26.25C20.755 26.25 26.25 20.755 26.25 14C26.25 7.24503 20.755 1.75 14 1.75Z" fill="black"/>
<path d="M13.9999 17.2083C13.5169 17.2083 13.1249 16.8163 13.1249 16.3333V15.155C13.1249 14.0443 13.8297 13.048 14.8773 12.6793C16.2714 12.1882 17.2083 10.7041 17.2083 9.62491C17.2083 7.85504 15.7698 6.4165 13.9999 6.4165C12.23 6.4165 10.7915 7.85504 10.7915 9.62491C10.7915 10.1079 10.3995 10.4999 9.9165 10.4999C9.4335 10.4999 9.0415 10.1079 9.0415 9.62491C9.0415 6.89032 11.2653 4.6665 13.9999 4.6665C16.7345 4.6665 18.9583 6.89032 18.9583 9.62491C18.9583 11.5721 17.4217 13.6382 15.4594 14.3289C15.1095 14.4526 14.8749 14.785 14.8749 15.155V16.3333C14.8749 16.8163 14.4829 17.2083 13.9999 17.2083Z" fill="black"/>
</svg>
