<svg width="28" height="28" viewBox="0 0 28 28" fill="none" xmlns="http://www.w3.org/2000/svg">
<path d="M14 0C6.28009 0 0 6.28009 0 14C0 21.7199 6.28009 28 14 28C21.7199 28 28 21.7199 28 14C28 6.28009 21.7199 0 14 0Z" fill="#F44336"/>
<path d="M14 28C6.28009 28 0 21.7199 0 14C0 6.28009 6.28009 0 14 0C21.7199 0 28 6.28009 28 14C28 21.7199 21.7199 28 14 28ZM14 1.75C7.24503 1.75 1.75 7.24503 1.75 14C1.75 20.755 7.24503 26.25 14 26.25C20.755 26.25 26.25 20.755 26.25 14C26.25 7.24503 20.755 1.75 14 1.75Z" fill="black"/>
<path d="M9.66971 19.2069C9.44562 19.2069 9.22153 19.1217 9.05127 18.9501C8.70947 18.6083 8.70947 18.0542 9.05127 17.7124L17.7137 9.04996C18.0557 8.70795 18.6098 8.70795 18.9516 9.04996C19.2934 9.39176 19.2934 9.9459 18.9516 10.2877L10.289 18.9501C10.1164 19.1217 9.89252 19.2069 9.66971 19.2069Z" fill="black"/>
<path d="M18.3306 19.2069C18.1067 19.2069 17.8826 19.1217 17.7124 18.9501L9.04996 10.2877C8.70795 9.9459 8.70795 9.39176 9.04996 9.04996C9.39176 8.70795 9.9459 8.70795 10.2877 9.04996L18.9501 17.7124C19.2921 18.0542 19.2921 18.6083 18.9501 18.9501C18.7788 19.1217 18.5547 19.2069 18.3306 19.2069Z" fill="black"/>
</svg>
